<svg viewBox="0 0 256 255" xmlns="http://www.w3.org/2000/svg" aria-label="Python">
  <path fill="#3776AB" d="M126.9 0C62.06 0 66.1 28.12 66.1 28.12l.07 29.13h61.85v8.74H41.62S0 61.27 0 126.69c0 65.42 36.32 63.1 36.32 63.1h21.6v-30.36s-1.16-36.32 35.75-36.32h61.34s34.58.56 34.58-33.42V33.98S195.18 0 126.9 0zM92.8 19.57c6.15 0 11.12 4.97 11.12 11.12s-4.97 11.12-11.12 11.12-11.12-4.97-11.12-11.12 4.97-11.12 11.12-11.12z"/>
  <path fill="#FFD43B" d="M129.1 254.4c64.84 0 60.8-28.12 60.8-28.12l-.07-29.13H127.98v-8.74h86.4s41.62 4.72 41.62-60.7c0-65.42-36.32-63.1-36.32-63.1h-21.6v30.36s1.16 36.32-35.75 36.32H100.99s-34.58-.56-34.58 33.42v56.21s-5.25 33.98 62.69 33.98zM163.2 234.83c-6.15 0-11.12-4.97-11.12-11.12s4.97-11.12 11.12-11.12 11.12 4.97 11.12 11.12-4.97 11.12-11.12 11.12z"/>
</svg>
